<svg width="15" height="14" viewBox="0 0 15 14" fill="none" xmlns="http://www.w3.org/2000/svg">
<path d="M12.7969 8.125H5.35743L5.53516 8.9375H12.3398C12.7207 8.9375 13.0254 9.31836 12.9238 9.69922L12.7969 10.3086C13.2793 10.5371 13.6094 11.0195 13.6094 11.5781C13.6094 12.3906 12.9492 13.0254 12.1621 13C11.4004 13 10.7656 12.3906 10.7656 11.6289C10.7402 11.2227 10.918 10.8418 11.1719 10.5625H5.86524C6.11914 10.8418 6.29688 11.1973 6.29688 11.5781C6.29688 12.3906 5.61133 13.0508 4.79883 13C4.0625 12.9746 3.47852 12.3906 3.45313 11.6797C3.40235 11.0957 3.70704 10.6133 4.16407 10.3594L2.36133 1.625H0.609379C0.253911 1.625 4.29153e-06 1.37109 4.29153e-06 1.01562V0.609375C4.29153e-06 0.279297 0.253911 0 0.609379 0H3.19922C3.47852 0 3.73243 0.228516 3.8086 0.507812L4.03711 1.625H13.9902C14.3965 1.625 14.6758 2.00586 14.5996 2.38672L13.4063 7.66797C13.3301 7.94727 13.0762 8.125 12.7969 8.125ZM10.3594 4.26562H9.14063V3.25C9.14063 3.04688 8.9375 2.84375 8.73438 2.84375H8.32813C8.09961 2.84375 7.92188 3.04688 7.92188 3.25V4.26562H6.70313C6.47461 4.26562 6.29688 4.46875 6.29688 4.67188V5.07812C6.29688 5.30664 6.47461 5.48438 6.70313 5.48438H7.92188V6.5C7.92188 6.72852 8.09961 6.90625 8.32813 6.90625H8.73438C8.9375 6.90625 9.14063 6.72852 9.14063 6.5V5.48438H10.3594C10.5625 5.48438 10.7656 5.30664 10.7656 5.07812V4.67188C10.7656 4.46875 10.5625 4.26562 10.3594 4.26562Z" fill="white"/>
</svg>
